# xmcd
#
# Track frame offsets:
#	150
#	11262
#	25407
#	38997
#	49450
#	64852
#	78027
#	91312
#	107272
#	118997
#	130857
#	146160
#	165640
#	176115
#	188402
#	199477
#	212945
#	226727
#	238692
#
# Disc length: 3355 seconds
#
# Revision: 1
# Processed by: cddbd v1.5.2PL0 Copyright (c) Steve Scherf et al.
# Submitted via: audiograbber 1.83.01
#
DISCID=070d1913
DTITLE=Various Artist - TEAR - JERKER FAVOURITES
DYEAR=1900
DGENRE=Country
TTITLE0=CONWAY TWITTY - IT'S ONLY MAKE BELIEVE
TTITLE1=LYNN ANDERSON - CRY
TTITLE2=GLEN CAMPBELL - HONEY, COME BACK
TTITLE3=WILLIE NELSON - BLUE EYES CRYING IN THE RAIN
TTITLE4=DOTTIE WEST - ARE YOU HAPPY BABY?
TTITLE5=MAC DAVIS - BABY, DON'T GET HOOKED ON ME
TTITLE6=GOGI GRANT - THE WAYWARD WIND
TTITLE7=MARTY ROBBINS - MY WOMAN, MY WOMAN MY WIFE
TTITLE8=DON GIBSON - I CAN'T STOP LOVING YOU
TTITLE9=CONWAY TWITTY - LORETTA LYNN - AFTER THE FIRE IS GONE
TTITLE10=RITA COOLIDGE - I'D RATHER LEAVE WHILE I'M IN LOVE
TTITLE11=KENNY ROGERS - SHE BELIEVES IN ME
TTITLE12=PATSY CLINE - LOVESICK BLUES
TTITLE13=GLEN CAMPBELL - BY THE TIME I GET TO PHOENIX
TTITLE14=DON GIBSON - OH LONESOME ME
TTITLE15=DAVID HOUSTON - ALMOST PERSUADED
TTITLE16=CONNIE FRANCIS - DON'T BREAK THE HEART THAT LOVES YOU
TTITLE17=MERLE HAGGARD - THINGS AREN'T FUNNY ANYMORE
TTITLE18=CRYSTAL GAYLE - TALKING IN YOUR SLEEP
EXTD=
EXTT0=
EXTT1=
EXTT2=
EXTT3=
EXTT4=
EXTT5=
EXTT6=
EXTT7=
EXTT8=
EXTT9=
EXTT10=
EXTT11=
EXTT12=
EXTT13=
EXTT14=
EXTT15=
EXTT16=
EXTT17=
EXTT18=
PLAYORDER=
